{
  "accessors": [
    {
      "bufferView": 2,
      "componentType": 5126,
      "count": 1625,
      "max": [
        0.8906729817390442,
        0.9928855895996094,
        0.8485497832298279
      ],
      "min": [
        -0.8906729817390442,
        -0.9928855895996094,
        -0.8485497832298279
      ],
      "type": "VEC3"
    },
    {
      "bufferView": 2,
      "byteOffset": 19500,
      "componentType": 5126,
      "count": 1625,
      "max": [
        0.9911701679229736,
        1.0,
        0.9999988079071045
      ],
      "min": [
        -0.9911701679229736,
        -1.0,
        -0.9999988079071045
      ],
      "type": "VEC3"
    },
    {
      "bufferView": 3,
      "componentType": 5126,
      "count": 1625,
      "max": [
        0.9989449381828308,
        0.9960896968841553,
        0.9296748042106628,
        -1.0
      ],
      "min": [
        -0.9988338351249695,
        -0.996457040309906,
        -0.999994158744812,
        -1.0
      ],
      "type": "VEC4"
    },
    {
      "bufferView": 1,
      "componentType": 5126,
      "count": 1625,
      "max": [
        0.996179461479187,
        0.9936268329620361
      ],
      "min": [
        0.003820478916168213,
        0.0038204193115234375
      ],
      "type": "VEC2"
    },
    {
      "bufferView": 1,
      "byteOffset": 13000,
      "componentType": 5126,
      "count": 1625,
      "max": [
        0.996179461479187,
        0.9936268329620361
      ],
      "min": [
        0.003820478916168213,
        0.0038204193115234375
      ],
      "type": "VEC2"
    },
    {
      "bufferView": 0,
      "componentType": 5125,
      "count": 5820,
      "type": "SCALAR"
    }
  ],
  "asset": {
    "extras": {
      "author": "archonomous (https://sketchfab.com/archonomous)",
      "license": "CC-BY-NC-4.0 (http://creativecommons.org/licenses/by-nc/4.0/)",
      "source": "https://sketchfab.com/3d-models/free-d20-baked-game-ready-de2fd60bf8754ea1870a1a0aa103eeed",
      "title": "Free D20 | Baked & Game-ready"
    },
    "generator": "Sketchfab-16.31.0",
    "version": "2.0"
  },
  "bufferViews": [
    {
      "buffer": 0,
      "byteLength": 23280,
      "name": "floatBufferViews",
      "target": 34963
    },
    {
      "buffer": 0,
      "byteLength": 26000,
      "byteOffset": 23280,
      "byteStride": 8,
      "name": "floatBufferViews",
      "target": 34962
    },
    {
      "buffer": 0,
      "byteLength": 39000,
      "byteOffset": 49280,
      "byteStride": 12,
      "name": "floatBufferViews",
      "target": 34962
    },
    {
      "buffer": 0,
      "byteLength": 26000,
      "byteOffset": 88280,
      "byteStride": 16,
      "name": "floatBufferViews",
      "target": 34962
    }
  ],
  "buffers": [
    {
      "byteLength": 114280,
      "uri": "scene.bin"
    }
  ],
  "extensionsUsed": [
    "KHR_materials_specular"
  ],
  "images": [
    {
      "uri": "textures/material_baseColor.jpeg"
    },
    {
      "uri": "textures/material_normal.jpeg"
    },
    {
      "uri": "textures/material_specularf0.png"
    }
  ],
  "materials": [
    {
      "doubleSided": true,
      "extensions": {
        "KHR_materials_specular": {
          "specularColorFactor": [
            1.0,
            1.0,
            1.0
          ],
          "specularFactor": 1.0,
          "specularTexture": {
            "index": 2
          }
        }
      },
      "name": "material",
      "normalTexture": {
        "index": 1,
        "scale": 0.25
      },
      "pbrMetallicRoughness": {
        "baseColorTexture": {
          "index": 0
        },
        "metallicFactor": 0.875,
        "roughnessFactor": 0.333
      }
    }
  ],
  "meshes": [
    {
      "name": "Object_0",
      "primitives": [
        {
          "attributes": {
            "NORMAL": 1,
            "POSITION": 0,
            "TANGENT": 2,
            "TEXCOORD_0": 3,
            "TEXCOORD_1": 4
          },
          "indices": 5,
          "material": 0,
          "mode": 4
        }
      ]
    }
  ],
  "nodes": [
    {
      "children": [
        1
      ],
      "matrix": [
        1.0,
        0.0,
        0.0,
        0.0,
        0.0,
        2.220446049250313e-16,
        -1.0,
        0.0,
        0.0,
        1.0,
        2.220446049250313e-16,
        0.0,
        0.0,
        0.0,
        0.0,
        1.0
      ],
      "name": "Sketchfab_model"
    },
    {
      "children": [
        2
      ],
      "name": "root"
    },
    {
      "children": [
        3
      ],
      "matrix": [
        1.0,
        0.0,
        0.0,
        0.0,
        0.0,
        2.220446049250313e-16,
        1.0,
        0.0,
        0.0,
        -1.0,
        2.220446049250313e-16,
        0.0,
        0.0,
        0.0,
        0.0,
        1.0
      ],
      "name": "GLTF_SceneRootNode"
    },
    {
      "children": [
        4
      ],
      "matrix": [
        0.10000002384185791,
        0.0,
        0.0,
        0.0,
        0.0,
        0.10000002384185791,
        0.0,
        0.0,
        0.0,
        0.0,
        0.10000002384185791,
        0.0,
        0.0,
        0.0,
        0.0,
        1.0
      ],
      "name": "D20_0"
    },
    {
      "mesh": 0,
      "name": "Object_4"
    }
  ],
  "samplers": [
    {
      "magFilter": 9729,
      "minFilter": 9987,
      "wrapS": 10497,
      "wrapT": 10497
    }
  ],
  "scene": 0,
  "scenes": [
    {
      "name": "Sketchfab_Scene",
      "nodes": [
        0
      ]
    }
  ],
  "textures": [
    {
      "sampler": 0,
      "source": 0
    },
    {
      "sampler": 0,
      "source": 1
    },
    {
      "sampler": 0,
      "source": 2
    }
  ]
}
